<?xml version="1.0" encoding="UTF-8" standalone="no"?>
<!DOCTYPE svg PUBLIC "-//W3C//DTD SVG 1.1//EN"
 "http://www.w3.org/Graphics/SVG/1.1/DTD/svg11.dtd">
<!-- Generated by graphviz version 2.40.1 (20161225.0304)
 -->
<!-- Title: G Pages: 1 -->
<svg width="286pt" height="458pt"
 viewBox="0.00 0.00 286.00 458.00" xmlns="http://www.w3.org/2000/svg" xmlns:xlink="http://www.w3.org/1999/xlink">
<g id="graph0" class="graph" transform="scale(1 1) rotate(0) translate(4 454)">
<title>G</title>
<polygon fill="#ffffff" stroke="transparent" points="-4,4 -4,-454 282,-454 282,4 -4,4"/>
<!-- A0 -->
<g id="node1" class="node">
<title>A0</title>
<polygon fill="none" stroke="#000000" points="0,-418 0,-450 108,-450 108,-418 0,-418"/>
<text text-anchor="start" x="13.852" y="-431" font-family="Helvetica,sans-Serif" font-size="10.00" fill="#000000">+BasketballPlayer</text>
<polygon fill="none" stroke="#000000" points="0,-374 0,-418 108,-418 108,-374 0,-374"/>
<text text-anchor="start" x="11.778" y="-399" font-family="Helvetica,sans-Serif" font-size="10.00" fill="#000000">&#45;playerName:string</text>
<text text-anchor="start" x="14.278" y="-387" font-family="Helvetica,sans-Serif" font-size="10.00" fill="#000000">&#45;playerNumber:int</text>
<polygon fill="none" stroke="#000000" points="0,-294 0,-374 108,-374 108,-294 0,-294"/>
<text text-anchor="start" x="9.968" y="-355" font-family="Helvetica,sans-Serif" font-size="10.00" fill="#000000">+PlayerName:string</text>
<text text-anchor="start" x="12.468" y="-343" font-family="Helvetica,sans-Serif" font-size="10.00" fill="#000000">+PlayerNumber:int</text>
<text text-anchor="start" x="33.859" y="-331" font-family="Helvetica,sans-Serif" font-size="10.00" fill="#000000">+Play():a</text>
<text text-anchor="start" x="26.9105" y="-319" font-family="Helvetica,sans-Serif" font-size="10.00" fill="#000000">+notPlay():a</text>
<text text-anchor="start" x="36.6385" y="-307" font-family="Helvetica,sans-Serif" font-size="10.00" fill="#000000">+run():v</text>
</g>
<!-- A3 -->
<g id="node4" class="node">
<title>A3</title>
<polygon fill="none" stroke="#000000" points="63,-212 63,-244 149,-244 149,-212 63,-212"/>
<text text-anchor="start" x="89.188" y="-225" font-family="Helvetica,sans-Serif" font-size="10.00" fill="#000000">+Guard</text>
<polygon fill="none" stroke="#000000" points="63,0 63,-212 149,-212 149,0 63,0"/>
<text text-anchor="start" x="84.3345" y="-193" font-family="Helvetica,sans-Serif" font-size="10.00" fill="#000000">trunover()</text>
<text text-anchor="start" x="90.443" y="-181" font-family="Helvetica,sans-Serif" font-size="10.00" fill="#000000">shoot()</text>
<text text-anchor="start" x="92.112" y="-169" font-family="Helvetica,sans-Serif" font-size="10.00" fill="#000000">pass()</text>
<text text-anchor="start" x="87.6695" y="-157" font-family="Helvetica,sans-Serif" font-size="10.00" fill="#000000">dribble()</text>
<text text-anchor="start" x="92.113" y="-145" font-family="Helvetica,sans-Serif" font-size="10.00" fill="#000000">steal()</text>
<text text-anchor="start" x="91.0025" y="-133" font-family="Helvetica,sans-Serif" font-size="10.00" fill="#000000">block()</text>
<text text-anchor="start" x="84.3295" y="-121" font-family="Helvetica,sans-Serif" font-size="10.00" fill="#000000">rebound()</text>
<text text-anchor="start" x="79.8935" y="-109" font-family="Helvetica,sans-Serif" font-size="10.00" fill="#000000">crossOver()</text>
<text text-anchor="start" x="72.936" y="-97" font-family="Helvetica,sans-Serif" font-size="10.00" fill="#000000">betweenLegs()</text>
<text text-anchor="start" x="76.55" y="-85" font-family="Helvetica,sans-Serif" font-size="10.00" fill="#000000">behindBack()</text>
<text text-anchor="start" x="91.838" y="-73" font-family="Helvetica,sans-Serif" font-size="10.00" fill="#000000">drive()</text>
<text text-anchor="start" x="91.8325" y="-61" font-family="Helvetica,sans-Serif" font-size="10.00" fill="#000000">dunk()</text>
<text text-anchor="start" x="87.668" y="-49" font-family="Helvetica,sans-Serif" font-size="10.00" fill="#000000">screen()</text>
<text text-anchor="start" x="89.3335" y="-37" font-family="Helvetica,sans-Serif" font-size="10.00" fill="#000000">play():o</text>
<text text-anchor="start" x="81.83" y="-25" font-family="Helvetica,sans-Serif" font-size="10.00" fill="#000000">notPlay():o</text>
<text text-anchor="start" x="91.2785" y="-13" font-family="Helvetica,sans-Serif" font-size="10.00" fill="#000000">run():0</text>
</g>
<!-- A0&#45;&gt;A3 -->
<g id="edge1" class="edge">
<title>A0&#45;&gt;A3</title>
<path fill="none" stroke="#000000" d="M72.3435,-283.8102C75.0016,-271.0306 77.777,-257.6874 80.5442,-244.3838"/>
<polygon fill="#000000" stroke="#000000" points="70.2392,-293.9268 67.87,-283.2199 71.2575,-289.0316 72.2757,-284.1363 72.2757,-284.1363 72.2757,-284.1363 71.2575,-289.0316 76.6814,-285.0527 70.2392,-293.9268 70.2392,-293.9268"/>
</g>
<!-- A4 -->
<g id="node5" class="node">
<title>A4</title>
<polygon fill="none" stroke="#000000" points="167,-200 167,-232 235,-232 235,-200 167,-200"/>
<text text-anchor="start" x="190.857" y="-213" font-family="Helvetica,sans-Serif" font-size="10.00" fill="#000000">+Big</text>
<polygon fill="none" stroke="#000000" points="167,-12 167,-200 235,-200 235,-12 167,-12"/>
<text text-anchor="start" x="179.3345" y="-181" font-family="Helvetica,sans-Serif" font-size="10.00" fill="#000000">turnover()</text>
<text text-anchor="start" x="185.443" y="-169" font-family="Helvetica,sans-Serif" font-size="10.00" fill="#000000">shoot()</text>
<text text-anchor="start" x="187.112" y="-157" font-family="Helvetica,sans-Serif" font-size="10.00" fill="#000000">pass()</text>
<text text-anchor="start" x="182.6695" y="-145" font-family="Helvetica,sans-Serif" font-size="10.00" fill="#000000">dribble()</text>
<text text-anchor="start" x="187.113" y="-133" font-family="Helvetica,sans-Serif" font-size="10.00" fill="#000000">steal()</text>
<text text-anchor="start" x="186.0025" y="-121" font-family="Helvetica,sans-Serif" font-size="10.00" fill="#000000">block()</text>
<text text-anchor="start" x="179.3295" y="-109" font-family="Helvetica,sans-Serif" font-size="10.00" fill="#000000">rebound()</text>
<text text-anchor="start" x="188.2225" y="-97" font-family="Helvetica,sans-Serif" font-size="10.00" fill="#000000">post()</text>
<text text-anchor="start" x="186.8325" y="-85" font-family="Helvetica,sans-Serif" font-size="10.00" fill="#000000">hook()</text>
<text text-anchor="start" x="186.8325" y="-73" font-family="Helvetica,sans-Serif" font-size="10.00" fill="#000000">dunk()</text>
<text text-anchor="start" x="182.668" y="-61" font-family="Helvetica,sans-Serif" font-size="10.00" fill="#000000">screen()</text>
<text text-anchor="start" x="184.3335" y="-49" font-family="Helvetica,sans-Serif" font-size="10.00" fill="#000000">play():o</text>
<text text-anchor="start" x="176.83" y="-37" font-family="Helvetica,sans-Serif" font-size="10.00" fill="#000000">notPlay():o</text>
<text text-anchor="start" x="186.2785" y="-25" font-family="Helvetica,sans-Serif" font-size="10.00" fill="#000000">run():0</text>
</g>
<!-- A0&#45;&gt;A4 -->
<g id="edge4" class="edge">
<title>A0&#45;&gt;A4</title>
<path fill="none" stroke="#000000" d="M114.5741,-296.9823C115.3876,-295.9818 116.1965,-294.9873 117,-294 135.1398,-271.7105 143.8995,-269.041 158,-244 161.1404,-238.423 164.1145,-232.5756 166.9204,-226.5873"/>
<polygon fill="#000000" stroke="#000000" points="108.2646,-304.7507 111.0761,-294.1513 111.4169,-300.8695 114.5692,-296.9884 114.5692,-296.9884 114.5692,-296.9884 111.4169,-300.8695 118.0622,-299.8254 108.2646,-304.7507 108.2646,-304.7507"/>
</g>
<!-- A1 -->
<g id="node2" class="node">
<title>A1</title>
<polygon fill="none" stroke="#000000" points="126,-408 126,-440 192,-440 192,-408 126,-408"/>
<text text-anchor="start" x="135.7945" y="-421" font-family="Helvetica,sans-Serif" font-size="10.00" fill="#000000">+I:Offense</text>
<polygon fill="none" stroke="#000000" points="126,-304 126,-408 192,-408 192,-304 126,-304"/>
<text text-anchor="start" x="137.3345" y="-389" font-family="Helvetica,sans-Serif" font-size="10.00" fill="#000000">turnover()</text>
<text text-anchor="start" x="143.443" y="-377" font-family="Helvetica,sans-Serif" font-size="10.00" fill="#000000">shoot()</text>
<text text-anchor="start" x="145.112" y="-365" font-family="Helvetica,sans-Serif" font-size="10.00" fill="#000000">pass()</text>
<text text-anchor="start" x="140.6695" y="-353" font-family="Helvetica,sans-Serif" font-size="10.00" fill="#000000">dribble()</text>
<text text-anchor="start" x="137.3295" y="-341" font-family="Helvetica,sans-Serif" font-size="10.00" fill="#000000">rebound()</text>
<text text-anchor="start" x="144.8325" y="-329" font-family="Helvetica,sans-Serif" font-size="10.00" fill="#000000">dunk()</text>
<text text-anchor="start" x="140.668" y="-317" font-family="Helvetica,sans-Serif" font-size="10.00" fill="#000000">screen()</text>
</g>
<!-- A1&#45;&gt;A3 -->
<g id="edge2" class="edge">
<title>A1&#45;&gt;A3</title>
<path fill="none" stroke="#000000" d="M142.3623,-293.5201C139.0251,-277.7787 135.4445,-260.8893 131.879,-244.0706"/>
<polygon fill="none" stroke="#000000" points="139.0196,-294.6297 144.5175,-303.6864 145.8674,-293.1779 139.0196,-294.6297"/>
</g>
<!-- A1&#45;&gt;A4 -->
<g id="edge5" class="edge">
<title>A1&#45;&gt;A4</title>
<path fill="none" stroke="#000000" d="M172.1628,-293.6501C175.443,-274.1253 179.021,-252.8276 182.5056,-232.0857"/>
<polygon fill="none" stroke="#000000" points="168.6819,-293.2447 170.4767,-303.6864 175.5852,-294.4045 168.6819,-293.2447"/>
</g>
<!-- A2 -->
<g id="node3" class="node">
<title>A2</title>
<polygon fill="none" stroke="#000000" points="210,-384 210,-416 278,-416 278,-384 210,-384"/>
<text text-anchor="start" x="219.6845" y="-397" font-family="Helvetica,sans-Serif" font-size="10.00" fill="#000000">+I:Defense</text>
<polygon fill="none" stroke="#000000" points="210,-328 210,-384 278,-384 278,-328 210,-328"/>
<text text-anchor="start" x="230.113" y="-365" font-family="Helvetica,sans-Serif" font-size="10.00" fill="#000000">steal()</text>
<text text-anchor="start" x="229.0025" y="-353" font-family="Helvetica,sans-Serif" font-size="10.00" fill="#000000">block()</text>
<text text-anchor="start" x="222.3295" y="-341" font-family="Helvetica,sans-Serif" font-size="10.00" fill="#000000">rebound()</text>
</g>
<!-- A2&#45;&gt;A3 -->
<g id="edge3" class="edge">
<title>A2&#45;&gt;A3</title>
<path fill="none" stroke="#000000" d="M216.6713,-318.9101C211.7423,-310.3985 206.4338,-301.8236 201,-294 184.2804,-269.9269 173.4842,-268.8858 158,-244 154.8983,-239.015 151.8985,-233.8126 149.0112,-228.4856"/>
<polygon fill="none" stroke="#000000" points="213.6878,-320.7445 221.6597,-327.7229 219.7796,-317.2962 213.6878,-320.7445"/>
</g>
<!-- A2&#45;&gt;A4 -->
<g id="edge6" class="edge">
<title>A2&#45;&gt;A4</title>
<path fill="none" stroke="#000000" d="M234.6854,-317.8452C230.3671,-292.739 225.0697,-261.9401 219.9655,-232.2648"/>
<polygon fill="none" stroke="#000000" points="231.2669,-318.6185 236.4114,-327.8805 238.1656,-317.4319 231.2669,-318.6185"/>
</g>
</g>
</svg>
